<svg version="1.1" id="图层_1" xmlns="http://www.w3.org/2000/svg" x="0" y="0" viewBox="0 0 281.4 281.4" style="enable-background:new 0 0 281.4 281.4" xml:space="preserve">
  <style>
    .st1{fill:#fff}
  </style>
  <linearGradient id="SVGID_1_" gradientUnits="userSpaceOnUse" x1="97.549" y1="-729.345" x2="199.91" y2="-599.522" gradientTransform="translate(0 799.716)">
    <stop offset=".001" style="stop-color:#b3ffff"/>
    <stop offset=".059" style="stop-color:#aae9ff"/>
    <stop offset=".179" style="stop-color:#94b1ff"/>
    <stop offset=".349" style="stop-color:#7059ff"/>
    <stop offset=".508" style="stop-color:#4c00ff"/>
    <stop offset=".567" style="stop-color:#5600fe"/>
    <stop offset=".667" style="stop-color:#7200fc"/>
    <stop offset=".798" style="stop-color:#a000f8"/>
    <stop offset=".952" style="stop-color:#de00f3"/>
    <stop offset="1" style="stop-color:#f300f1"/>
  </linearGradient>
  <path d="M107.5 184.3H78.2l-24.6-42L78 99.1l17.3-30.6H190l-20.4 33.3H241L218.5 141h-24.9l13.7 23.6-27.5 48.1H91.1l16.4-28.4zm51.7-7.1 20.8-36.1h-38.8l19.4-34h-42l-20.3 35.1 20.3 35h40.6z" style="fill:url(#SVGID_1_)"/>
  <path class="st1" d="M186.9 142.1 163 183.7h-47.8l-13 22.7h74l23.8-41.6zM225.6 108.3h4.5l-15.2 26.4h-4.4zM221.9 108.3h-54.5l-15.1 26.4h54.6zM99.1 74.9l-14.6 25.8H163l15.6-25.8zM112.2 105.4H81.8l-20.9 36.8 20.9 35.6h29.9l-20.6-35.6z"/>
  <g style="opacity:.6">
    <linearGradient id="SVGID_00000039129553821398462130000008495558241117196980_" gradientUnits="userSpaceOnUse" x1="97.549" y1="-729.345" x2="199.91" y2="-599.522" gradientTransform="translate(0 799.716)">
      <stop offset=".001" style="stop-color:#b3ffff"/>
      <stop offset=".059" style="stop-color:#aae9ff"/>
      <stop offset=".179" style="stop-color:#94b1ff"/>
      <stop offset=".349" style="stop-color:#7059ff"/>
      <stop offset=".508" style="stop-color:#4c00ff"/>
      <stop offset=".567" style="stop-color:#5600fe"/>
      <stop offset=".667" style="stop-color:#7200fc"/>
      <stop offset=".798" style="stop-color:#a000f8"/>
      <stop offset=".952" style="stop-color:#de00f3"/>
      <stop offset="1" style="stop-color:#f300f1"/>
    </linearGradient>
    <path style="fill:url(#SVGID_00000039129553821398462130000008495558241117196980_)" d="M107.5 184.3H78.2l-24.6-42L78 99.1l17.3-30.6H190l-20.4 33.3H241L218.5 141h-24.9l13.7 23.6-27.5 48.1H91.1l16.4-28.4zm51.7-7.1 20.8-36.1h-38.8l19.4-34h-42l-20.3 35.1 20.3 35h40.6z"/>
    <path class="st1" d="M186.9 142.1 163 183.7h-47.8l-13 22.7h74l23.8-41.6zM225.6 108.3h4.5l-15.2 26.4h-4.4zM221.9 108.3h-54.5l-15.1 26.4h54.6zM99.1 74.9l-14.6 25.8H163l15.6-25.8zM112.2 105.4H81.8l-20.9 36.8 20.9 35.6h29.9l-20.6-35.6z"/>
  </g>
</svg>
