<svg version="1.1" id="图层_1" xmlns="http://www.w3.org/2000/svg" x="0" y="0" viewBox="0 0 892.5 184.5" style="enable-background:new 0 0 892.5 184.5" xml:space="preserve">
  <style>
    .st0{fill:#fff}
  </style>
  <path class="st0" d="M246.1 179.4c0 2.7-2.1 4.9-4.8 4.9h-10.6l-.2-15.4h9.7c2.3 0 4.2 1.9 4.2 4.2 0 .8-.2 1.6-.6 2.2 1.5.9 2.3 2.5 2.3 4.1zm-12.7-4.9h7c.8 0 1.4-.6 1.4-1.4 0-.8-.6-1.4-1.4-1.4h-7v2.8zm10 4.9c0-1.2-1-2.2-2.2-2.2h-7.7l.1 4.3h7.7c1.1.1 2.1-.9 2.1-2.1zm44.6-10.5-5.9 7.7-.3.4.1 7.3h-2.8l-.1-7.2-.4-.5-6.1-7.7h3.5l4.3 5.5 4.2-5.5h3.5zm-15.2 15.4zm15.4 0zm80.5-3.3-.9 3.3-2.1-2.8-3.1-4.2-3 4.2-2 2.8-1-3.3-3.7-12.1h2.9l2.9 9.3 2.3-3.2.4-.6 1.2-1.7 1.3 1.7.5.6 2.4 3.2 2.6-9.3h2.9l-3.6 12.1zm33.4-7.9v1.4h9.9v2.7h-9.9v2.9c0 .8.6 1.4 1.4 1.4h11.2v2.7h-11c-2.3 0-4.2-1.9-4.2-4.2l-.1-7.1c0-2.3 1.8-4.1 4-4.2H414.7v2.7h-11.2c-.7.3-1.4.9-1.4 1.7zm56.3 6.3c0 2.7-2.1 4.9-4.8 4.9H443l-.2-15.4h9.7c2.3 0 4.2 1.9 4.2 4.2 0 .8-.2 1.6-.6 2.2 1.5.9 2.3 2.5 2.3 4.1zm-12.7-4.9h7c.8 0 1.4-.6 1.4-1.4 0-.8-.6-1.4-1.4-1.4h-7v2.8zm10 4.9c0-1.2-1-2.2-2.2-2.2h-7.8l.1 4.3h7.7c1.2.1 2.2-.9 2.2-2.1zm44.4-2.7c.8.8 1.3 2 1.3 3.2 0 2.5-1.9 4.5-4.4 4.5h-11v-2.7h10.9c1 0 1.8-.8 1.8-1.8s-.8-1.7-1.7-1.8H488.7v-2.8h8.2c1 0 1.7-.8 1.7-1.8s-.8-1.8-1.8-1.8h-10.9V169h10.8c2.5 0 4.6 2 4.6 4.5.1 1.2-.4 2.3-1.2 3.2zm32.2-.1c0 2.7 2.3 4.9 5 5h5v-2.9h-5V176h7.7l.1 8.4h-7.7c-4.3 0-7.7-3.4-7.8-7.7-.1-4.2 3.3-7.6 7.5-7.7h7.8v2.7h-7.7c-2.7 0-4.9 2.2-4.9 4.9zm55.7 7.7h-3.1l-1.4-2.8-3.4-6.6-3.3 6.6-1.4 2.8h-3.1l1.4-2.8 6.3-12.6 6.6 12.6 1.4 2.8zm42.5-15.4.2 15.4h-2.8l-.1-9.8-2.7 2.1-2.2 1.7-2.3-1.7-2.7-2.1.1 9.8h-2.8l-.2-15.4 2.8 2.1 5 3.8 4.9-3.8 2.8-2.1zm30.9 4.2v1.4h9.9v2.7h-9.9v2.9c0 .8.6 1.4 1.4 1.4H674v2.7h-11.2c-2.3 0-4.2-1.9-4.2-4.2l-.1-7.1c0-2.3 1.8-4.1 4-4.2H673.8v2.7h-11.2c-.6.3-1.2.9-1.2 1.7zm52.6.1c0-.9-.7-1.5-1.4-1.5h-6.2c-.8 0-1.4.6-1.4 1.4v.1c0 .8.6 1.4 1.4 1.4h5.5c1.4 0 2.7.6 3.6 1.6l.2.2c.7.9 1.1 1.9 1.1 3.1 0 2.6-2.1 4.8-4.7 4.9H707.2c-2.7 0-4.9-2.2-4.9-4.9h2.7c0 1.2 1 2.1 2.1 2.1h4.8c1.2 0 2.1-.9 2.1-2.1 0-1.2-1-2.1-2.2-2.1h-5.5c-1.1 0-2.1-.4-2.9-1.2-.2-.2-.4-.4-.5-.6-.5-.7-.8-1.5-.8-2.4v-.1c0-2.3 1.8-4.1 4-4.2h6.3c2.3 0 4.2 1.9 4.2 4.2v.1H714zm31.1 11.3v-2.7h2.7v2.7h-2.7zm33.3-7.9c0 2.7 2.3 4.9 5 5h7.7v2.7h-7.7c-4.3 0-7.7-3.4-7.8-7.7-.1-4.2 3.3-7.6 7.5-7.7h7.8v2.7h-7.7c-2.6.1-4.8 2.3-4.8 5zm54.7 0c.1 4.2-3.3 7.6-7.5 7.7h-.1c-4.3 0-7.7-3.4-7.8-7.7-.1-4.2 3.3-7.6 7.5-7.7h.1c4.3 0 7.7 3.5 7.8 7.7zm-2.8 0c0-2.7-2.3-4.9-5-5-2.7 0-4.9 2.2-4.9 4.9v.1c0 2.7 2.3 4.9 5 5 2.8 0 4.9-2.2 4.9-5 0 .1 0 .1 0 0zm45.7-7.7.2 15.4h-2.8l-.1-9.8-2.7 2.1-2.2 1.7-2.3-1.7-2.7-2.1.1 9.8h-2.8l-.2-15.4 2.8 2.1 5 3.8 4.9-3.8 2.8-2.1z"/>
  <linearGradient id="SVGID_1_" gradientUnits="userSpaceOnUse" x1="987.518" y1="-1108.408" x2="199.569" y2="-1123.275" gradientTransform="matrix(1 0 0 -1 0 -999.038)">
    <stop offset=".068" style="stop-color:#a8ffff"/>
    <stop offset=".508" style="stop-color:#4c00ff"/>
    <stop offset=".567" style="stop-color:#5600fe"/>
    <stop offset=".667" style="stop-color:#7200fc"/>
    <stop offset=".798" style="stop-color:#a000f8"/>
    <stop offset=".952" style="stop-color:#de00f3"/>
    <stop offset="1" style="stop-color:#f300f1"/>
  </linearGradient>
  <path d="m555.2 153.5-15.9-6.7v-.1l-37-15.5.8-49.2h29.4l-.4 30.2 8 3.6.9-33.7h29.4l-1.1 42.3h7.9l.6-42.2 29.4-.1-.9 71.5-51.1-.1zm236.6 0v-.2h-34.3l-18.7-18.6h-9.5l-.2 18.6h-29.4l.5-42.3h-.1l.3-29.2h91.2l-.3 33.5-15.3 15 15.9 15.9.4-37.1.2-27.3H822l-.1 16.7L838.7 82h28.7l.2-.2h24.9l-30.6 30.1H850l-2.6 2.6 9.8 9.7h26.2l-.3 29.1H854l-8.6.2-21.2-21h-2.6l-.2 21.1-29.6-.1zm-184.8-.2.7-71.7h91.4l-.7 71.7H607zm62.3-29.3.1-13.2h-32.5l-.1 13.2h32.5zm-229 29.3.4-42.4h-31l.3-29.3h91.6l-.3 29.3h-31.1l-.4 42.4h-29.5zm-123.8 0 .7-71.7h91.4l-.3 29.3h-18.9l-.1 13.2h18.9l-.3 29.3-91.4-.1zm-30.6 0 .3-29.9-28.6-12.4h-3.7l-.4 42.4h-29.4l.4-42.4.3-29.2H264l22.5 9.8 29.3 12.8-.5 49-29.4-.1z" style="fill:url(#SVGID_1_)"/>
  <path class="st0" d="m292.1 147.2.5-46.3 17.1 7.5-.4 38.9h-17.2v-.1zm-61.8 0 .4-38.3h17.2l-.4 38.3h-17.2zm28.6-42.4h-28.2l.2-17h31.8L288.5 99l-.2 18.5-29.4-12.7zm63.7 42.4.4-38.4h17.3l-.2 21.4H402l-.2 17.1h-79.2v-.1zm21.5-21.9.2-16.4h39l-.2 16.4h-39zm-21-20.6.2-17.1h79.2l-.2 17.1h-79.2zm123.4 42.5.4-38.4h17.3l-.4 38.4h-17.3zm-30.6-42.4.2-17.1h79.4l-.2 17.1h-79.4zm197.3 42.4.2-17.1h61.9l.2-21.4h17.2l-.4 38.4h-79.1v.1zm.2-21.1.4-38.4H693l-.2 17.1h-61.9l-.2 21.4-17.3-.1zM760 147.2l-18.7-18.6h-18l-.2 18.6h-17.2l.4-35.5h42.5l35.5 35.5H760zm-5.5-35.5h7.4l7.1-7-62.7.1.2-17h78.9l-.2 24.8-15 14.7-15.7-15.6zm93.4-6.5.3-.2 17.4-17h-24.4l-21.6 21.2h-3.9l.1-21.4h-17.3l-.1 21.2-.4 38.4h17.2l.2-21.2 35.4.1-12.1-12.1 9.2-9zm-.2 42 6.2-.1H877l.2-16.9h-46.6l17.1 17zm29.8-59.4-18.1 17.8H852l18.1-17.8h7.4zm-351.7 28.3.4-28H509l-.6 39.1 33.1 13.9.5-17.7-16.2-7.3zm58-27.9-.6 42.2H563l1.1-42.3h-17.2l-1.4 54.7 11 4.6h43.8l.8-59.3-17.3.1z"/>
  <linearGradient id="SVGID_00000137131354585761110770000007760969998541865141_" gradientUnits="userSpaceOnUse" x1="123.742" y1="-1039.077" x2="1077.705" y2="-1034.121" gradientTransform="matrix(1 0 0 -1 0 -999.038)">
    <stop offset=".001" style="stop-color:#b3ffff"/>
    <stop offset=".508" style="stop-color:#4c00ff"/>
    <stop offset=".567" style="stop-color:#5600fe"/>
    <stop offset=".667" style="stop-color:#7200fc"/>
    <stop offset=".798" style="stop-color:#a000f8"/>
    <stop offset=".952" style="stop-color:#de00f3"/>
    <stop offset="1" style="stop-color:#f300f1"/>
  </linearGradient>
  <path style="fill:url(#SVGID_00000137131354585761110770000007760969998541865141_)" d="m673.7 73.5.3-30.3-8.1-3.6-.5 33.9h-29.5l.7-42.5h-8.1l-.5 42.5H508.1l.4-27-28.3 27h-62.7l.3-16.4L401 73.5H276.9l-16-6.7v-.1l-37-15.5.2-49.2h29.4l-.1 30.1 8.1 3.6.6-33.7h29.4l-.7 42.3h7.9l.2-42.2 29.4-.1-.1 20.8L349.7 2h160.2l-.3 21.2h.1l-.1 3.3 56.7-24.4h33.3v-.2h51l52.9 22.2.3-22.2h182.4l-.3 21.6-21.3 21.8h21l-.4 28.3-211.5-.1zM328 64.8l17.9-17.4.2-16.3h-18l-.1 33.7zm466.5-20.6-.1 4.4 18-17.6H775.8l-.2 13.1 18.9.1zm-224.2 0 .2-12.4-28.8 12.4h28.6zm-122.8-7.1 6.1-6h-6l-.1 6z"/>
  <path class="st0" d="m247.2 36.1.1-28h-17.2l-.2 39L263 61l.4-17.7-16.2-7.2zm57.7-27.9-.2 42.3h-20.2l.7-42.3H268l-.9 54.6 11 4.6h43.8l.2-59.3-17.2.1zM352 46.1h44.1l-4.4 4.3h-40.2l-17.4 17h64.5l13.5-13.1.2-15.6h-7.4l7.5-7.3V29h-60.1l-.3 17.1zm.1-38-17.4 16.8 77.7.1.3-16.9h-60.6zm345.6 20.1-33.5-14-.3 17.9 16.2 7.2-.3 28.1H697l.7-39.2zM649.2 7.9h-43.7l-.9 59.5h17.2l.5-42.4h20.4l-.7 42.5h17.2l.9-54.9-10.9-4.7zm59.6 59.5.6-38.4h17.3l-.3 21.4h61.9l-.3 17h-79.2zm21.6-21.6.3-16.7h39l-.3 16.7h-39zm-20.9-20.9.3-17H789l-.3 17h-79.2zm120.3 21.4h17.9l17.4-17h-42.2l-22.8 22.3-.2 15.8H879l.3-17h-53.6l4.1-4.1zm-29-38.4-.3 17h77.4l1.7-1.7.2-15.4-79 .1zm51 38.4 4.6.1 17.4-17-4.6-.1-17.4 17zM447 46.2h28.3l-21.8 21.2h24.3l25-24 .4-14.2h-39l-17.2 17zM424.7 8.1l-.3 17h78.9l.3-17h-78.9zm16.8 20.5h-17.1l-.7 38.7h24l17.4-17h-24l.4-21.7zm73.1 21.8-.3 17H572l.3-17h-57.7zm79.6-42.3h-26.7l-52.7 22.7-.1 16.2h17.2v-5.1l38.9-16.8h5.8l-.5 42.3h17.2l.7-42.3.1-9.5v-.2l.1-7.3zM246.1 179.4c0 2.7-2.1 4.9-4.8 4.9h-10.6l-.2-15.4h9.7c2.3 0 4.2 1.9 4.2 4.2 0 .8-.2 1.6-.6 2.2 1.5.9 2.3 2.5 2.3 4.1zm-12.7-4.9h7c.8 0 1.4-.6 1.4-1.4 0-.8-.6-1.4-1.4-1.4h-7v2.8zm10 4.9c0-1.2-1-2.2-2.2-2.2h-7.7l.1 4.3h7.7c1.1.1 2.1-.9 2.1-2.1zm44.6-10.5-5.9 7.7-.3.4.1 7.3h-2.8l-.1-7.2-.4-.5-6.1-7.7h3.5l4.3 5.5 4.2-5.5h3.5zm-15.2 15.4zm15.4 0zm80.5-3.3-.9 3.3-2.1-2.8-3.1-4.2-3 4.2-2 2.8-1-3.3-3.7-12.1h2.9l2.9 9.3 2.3-3.2.4-.6 1.2-1.7 1.3 1.7.5.6 2.4 3.2 2.6-9.3h2.9l-3.6 12.1zm33.4-7.9v1.4h9.9v2.7h-9.9v2.9c0 .8.6 1.4 1.4 1.4h11.2v2.7h-11c-2.3 0-4.2-1.9-4.2-4.2l-.1-7.1c0-2.3 1.8-4.1 4-4.2H414.7v2.7h-11.2c-.7.3-1.4.9-1.4 1.7zm56.3 6.3c0 2.7-2.1 4.9-4.8 4.9H443l-.2-15.4h9.7c2.3 0 4.2 1.9 4.2 4.2 0 .8-.2 1.6-.6 2.2 1.5.9 2.3 2.5 2.3 4.1zm-12.7-4.9h7c.8 0 1.4-.6 1.4-1.4 0-.8-.6-1.4-1.4-1.4h-7v2.8zm10 4.9c0-1.2-1-2.2-2.2-2.2h-7.8l.1 4.3h7.7c1.2.1 2.2-.9 2.2-2.1zm44.4-2.7c.8.8 1.3 2 1.3 3.2 0 2.5-1.9 4.5-4.4 4.5h-11v-2.7h10.9c1 0 1.8-.8 1.8-1.8s-.8-1.7-1.7-1.8H488.7v-2.8h8.2c1 0 1.7-.8 1.7-1.8s-.8-1.8-1.8-1.8h-10.9V169h10.8c2.5 0 4.6 2 4.6 4.5.1 1.2-.4 2.3-1.2 3.2zm32.2-.1c0 2.7 2.3 4.9 5 5h5v-2.9h-5V176h7.7l.1 8.4h-7.7c-4.3 0-7.7-3.4-7.8-7.7-.1-4.2 3.3-7.6 7.5-7.7h7.8v2.7h-7.7c-2.7 0-4.9 2.2-4.9 4.9zm55.7 7.7h-3.1l-1.4-2.8-3.4-6.6-3.3 6.6-1.4 2.8h-3.1l1.4-2.8 6.3-12.6 6.6 12.6 1.4 2.8zm42.5-15.4.2 15.4h-2.8l-.1-9.8-2.7 2.1-2.2 1.7-2.3-1.7-2.7-2.1.1 9.8h-2.8l-.2-15.4 2.8 2.1 5 3.8 4.9-3.8 2.8-2.1zm30.9 4.2v1.4h9.9v2.7h-9.9v2.9c0 .8.6 1.4 1.4 1.4H674v2.7h-11.2c-2.3 0-4.2-1.9-4.2-4.2l-.1-7.1c0-2.3 1.8-4.1 4-4.2H673.8v2.7h-11.2c-.6.3-1.2.9-1.2 1.7zm52.6.1c0-.9-.7-1.5-1.4-1.5h-6.2c-.8 0-1.4.6-1.4 1.4v.1c0 .8.6 1.4 1.4 1.4h5.5c1.4 0 2.7.6 3.6 1.6l.2.2c.7.9 1.1 1.9 1.1 3.1 0 2.6-2.1 4.8-4.7 4.9H707.2c-2.7 0-4.9-2.2-4.9-4.9h2.7c0 1.2 1 2.1 2.1 2.1h4.8c1.2 0 2.1-.9 2.1-2.1 0-1.2-1-2.1-2.2-2.1h-5.5c-1.1 0-2.1-.4-2.9-1.2-.2-.2-.4-.4-.5-.6-.5-.7-.8-1.5-.8-2.4v-.1c0-2.3 1.8-4.1 4-4.2h6.3c2.3 0 4.2 1.9 4.2 4.2v.1H714zm31.1 11.3v-2.7h2.7v2.7h-2.7zm33.3-7.9c0 2.7 2.3 4.9 5 5h7.7v2.7h-7.7c-4.3 0-7.7-3.4-7.8-7.7-.1-4.2 3.3-7.6 7.5-7.7h7.8v2.7h-7.7c-2.6.1-4.8 2.3-4.8 5zm54.7 0c.1 4.2-3.3 7.6-7.5 7.7h-.1c-4.3 0-7.7-3.4-7.8-7.7-.1-4.2 3.3-7.6 7.5-7.7h.1c4.3 0 7.7 3.5 7.8 7.7zm-2.8 0c0-2.7-2.3-4.9-5-5-2.7 0-4.9 2.2-4.9 4.9v.1c0 2.7 2.3 4.9 5 5 2.8 0 4.9-2.2 4.9-5 0 .1 0 .1 0 0zm45.7-7.7.2 15.4h-2.8l-.1-9.8-2.7 2.1-2.2 1.7-2.3-1.7-2.7-2.1.1 9.8h-2.8l-.2-15.4 2.8 2.1 5 3.8 4.9-3.8 2.8-2.1z"/>
  <linearGradient id="SVGID_00000092416874705652472040000009471014004750989185_" gradientUnits="userSpaceOnUse" x1="987.518" y1="-1108.408" x2="199.569" y2="-1123.275" gradientTransform="matrix(1 0 0 -1 0 -999.038)">
    <stop offset=".068" style="stop-color:#a8ffff"/>
    <stop offset=".508" style="stop-color:#4c00ff"/>
    <stop offset=".567" style="stop-color:#5600fe"/>
    <stop offset=".667" style="stop-color:#7200fc"/>
    <stop offset=".798" style="stop-color:#a000f8"/>
    <stop offset=".952" style="stop-color:#de00f3"/>
    <stop offset="1" style="stop-color:#f300f1"/>
  </linearGradient>
  <path style="fill:url(#SVGID_00000092416874705652472040000009471014004750989185_)" d="m555.2 153.5-15.9-6.7v-.1l-37-15.5.8-49.2h29.4l-.4 30.2 8 3.6.9-33.7h29.4l-1.1 42.3h7.9l.6-42.2 29.4-.1-.9 71.5-51.1-.1zm236.6 0v-.2h-34.3l-18.7-18.6h-9.5l-.2 18.6h-29.4l.5-42.3h-.1l.3-29.2h91.2l-.3 33.5-15.3 15 15.9 15.9.4-37.1.2-27.3H822l-.1 16.7L838.7 82h28.7l.2-.2h24.9l-30.6 30.1H850l-2.6 2.6 9.8 9.7h26.2l-.3 29.1H854l-8.6.2-21.2-21h-2.6l-.2 21.1-29.6-.1zm-184.8-.2.7-71.7h91.4l-.7 71.7H607zm62.3-29.3.1-13.2h-32.5l-.1 13.2h32.5zm-229 29.3.4-42.4h-31l.3-29.3h91.6l-.3 29.3h-31.1l-.4 42.4h-29.5zm-123.8 0 .7-71.7h91.4l-.3 29.3h-18.9l-.1 13.2h18.9l-.3 29.3-91.4-.1zm-30.6 0 .3-29.9-28.6-12.4h-3.7l-.4 42.4h-29.4l.4-42.4.3-29.2H264l22.5 9.8 29.3 12.8-.5 49-29.4-.1z"/>
  <path class="st0" d="m292.1 147.2.5-46.3 17.1 7.5-.4 38.9h-17.2v-.1zm-61.8 0 .4-38.3h17.2l-.4 38.3h-17.2zm28.6-42.4h-28.2l.2-17h31.8L288.5 99l-.2 18.5-29.4-12.7zm63.7 42.4.4-38.4h17.3l-.2 21.4H402l-.2 17.1h-79.2v-.1zm21.5-21.9.2-16.4h39l-.2 16.4h-39zm-21-20.6.2-17.1h79.2l-.2 17.1h-79.2zm123.4 42.5.4-38.4h17.3l-.4 38.4h-17.3zm-30.6-42.4.2-17.1h79.4l-.2 17.1h-79.4zm197.3 42.4.2-17.1h61.9l.2-21.4h17.2l-.4 38.4h-79.1v.1zm.2-21.1.4-38.4H693l-.2 17.1h-61.9l-.2 21.4-17.3-.1zM760 147.2l-18.7-18.6h-18l-.2 18.6h-17.2l.4-35.5h42.5l35.5 35.5H760zm-5.5-35.5h7.4l7.1-7-62.7.1.2-17h78.9l-.2 24.8-15 14.7-15.7-15.6zm93.4-6.5.3-.2 17.4-17h-24.4l-21.6 21.2h-3.9l.1-21.4h-17.3l-.1 21.2-.4 38.4h17.2l.2-21.2 35.4.1-12.1-12.1 9.2-9zm-.2 42 6.2-.1H877l.2-16.9h-46.6l17.1 17zm29.8-59.4-18.1 17.8H852l18.1-17.8h7.4zm-351.7 28.3.4-28H509l-.6 39.1 33.1 13.9.5-17.7-16.2-7.3zm58-27.9-.6 42.2H563l1.1-42.3h-17.2l-1.4 54.7 11 4.6h43.8l.8-59.3-17.3.1z"/>
  <linearGradient id="SVGID_00000034808859969456134860000015780109223286968483_" gradientUnits="userSpaceOnUse" x1="123.742" y1="-1039.077" x2="1077.705" y2="-1034.121" gradientTransform="matrix(1 0 0 -1 0 -999.038)">
    <stop offset=".001" style="stop-color:#b3ffff"/>
    <stop offset=".508" style="stop-color:#4c00ff"/>
    <stop offset=".567" style="stop-color:#5600fe"/>
    <stop offset=".667" style="stop-color:#7200fc"/>
    <stop offset=".798" style="stop-color:#a000f8"/>
    <stop offset=".952" style="stop-color:#de00f3"/>
    <stop offset="1" style="stop-color:#f300f1"/>
  </linearGradient>
  <path style="fill:url(#SVGID_00000034808859969456134860000015780109223286968483_)" d="m673.7 73.5.3-30.3-8.1-3.6-.5 33.9h-29.5l.7-42.5h-8.1l-.5 42.5H508.1l.4-27-28.3 27h-62.7l.3-16.4L401 73.5H276.9l-16-6.7v-.1l-37-15.5.2-49.2h29.4l-.1 30.1 8.1 3.6.6-33.7h29.4l-.7 42.3h7.9l.2-42.2 29.4-.1-.1 20.8L349.7 2h160.2l-.3 21.2h.1l-.1 3.3 56.7-24.4h33.3v-.2h51l52.9 22.2.3-22.2h182.4l-.3 21.6-21.3 21.8h21l-.4 28.3-211.5-.1zM328 64.8l17.9-17.4.2-16.3h-18l-.1 33.7zm466.5-20.6-.1 4.4 18-17.6H775.8l-.2 13.1 18.9.1zm-224.2 0 .2-12.4-28.8 12.4h28.6zm-122.8-7.1 6.1-6h-6l-.1 6z"/>
  <path class="st0" d="m247.2 36.1.1-28h-17.2l-.2 39L263 61l.4-17.7-16.2-7.2zm57.7-27.9-.2 42.3h-20.2l.7-42.3H268l-.9 54.6 11 4.6h43.8l.2-59.3-17.2.1zM352 46.1h44.1l-4.4 4.3h-40.2l-17.4 17h64.5l13.5-13.1.2-15.6h-7.4l7.5-7.3V29h-60.1l-.3 17.1zm.1-38-17.4 16.8 77.7.1.3-16.9h-60.6zm345.6 20.1-33.5-14-.3 17.9 16.2 7.2-.3 28.1H697l.7-39.2zM649.2 7.9h-43.7l-.9 59.5h17.2l.5-42.4h20.4l-.7 42.5h17.2l.9-54.9-10.9-4.7zm59.6 59.5.6-38.4h17.3l-.3 21.4h61.9l-.3 17h-79.2zm21.6-21.6.3-16.7h39l-.3 16.7h-39zm-20.9-20.9.3-17H789l-.3 17h-79.2zm120.3 21.4h17.9l17.4-17h-42.2l-22.8 22.3-.2 15.8H879l.3-17h-53.6l4.1-4.1zm-29-38.4-.3 17h77.4l1.7-1.7.2-15.4-79 .1zm51 38.4 4.6.1 17.4-17-4.6-.1-17.4 17zM447 46.2h28.3l-21.8 21.2h24.3l25-24 .4-14.2h-39l-17.2 17zM424.7 8.1l-.3 17h78.9l.3-17h-78.9zm16.8 20.5h-17.1l-.7 38.7h24l17.4-17h-24l.4-21.7zm73.1 21.8-.3 17H572l.3-17h-57.7zm79.6-42.3h-26.7l-52.7 22.7-.1 16.2h17.2v-5.1l38.9-16.8h5.8l-.5 42.3h17.2l.7-42.3.1-9.5v-.2l.1-7.3z"/>
  <linearGradient id="SVGID_00000129913546231556497270000010528908057495260586_" gradientUnits="userSpaceOnUse" x1="48.135" y1="-304.833" x2="160.283" y2="-447.069" gradientTransform="matrix(1 0 0 -1 0 -302.8)">
    <stop offset=".001" style="stop-color:#b3ffff"/>
    <stop offset=".059" style="stop-color:#aae9ff"/>
    <stop offset=".179" style="stop-color:#94b1ff"/>
    <stop offset=".349" style="stop-color:#7059ff"/>
    <stop offset=".508" style="stop-color:#4c00ff"/>
    <stop offset=".567" style="stop-color:#5600fe"/>
    <stop offset=".667" style="stop-color:#7200fc"/>
    <stop offset=".798" style="stop-color:#a000f8"/>
    <stop offset=".952" style="stop-color:#de00f3"/>
    <stop offset="1" style="stop-color:#f300f1"/>
  </linearGradient>
  <path style="fill:url(#SVGID_00000129913546231556497270000010528908057495260586_)" d="M59.1 126.7H27l-27-46 26.8-47.3L45.8 0h103.7l-22.3 36.5h78.2l-24.6 43h-27.3l15 25.9-30.1 52.7H41.1l18-31.4zm56.7-7.6 22.8-39.6H96.1l21.3-37.3h-46L49.2 80.6 71.4 119h44.4v.1z"/>
  <path class="st0" d="m146.1 80.6-26.2 45.5H67.5l-14.2 25h81.1l26.1-45.7zM188.5 43.5h4.9l-16.6 29H172zM184.5 43.5h-59.8l-16.5 29H168zM49.9 7l-16 28.2h86L137 7zM64.3 40.4H30.9L8.1 80.6 31 119.7h32.7L41.1 80.6z"/>
  <g style="opacity:.6">
    <path class="st0" d="M246.1 179.4c0 2.7-2.1 4.9-4.8 4.9h-10.6l-.2-15.4h9.7c2.3 0 4.2 1.9 4.2 4.2 0 .8-.2 1.6-.6 2.2 1.5.9 2.3 2.5 2.3 4.1zm-12.7-4.9h7c.8 0 1.4-.6 1.4-1.4 0-.8-.6-1.4-1.4-1.4h-7v2.8zm10 4.9c0-1.2-1-2.2-2.2-2.2h-7.7l.1 4.3h7.7c1.1.1 2.1-.9 2.1-2.1zm44.6-10.5-5.9 7.7-.3.4.1 7.3h-2.8l-.1-7.2-.4-.5-6.1-7.7h3.5l4.3 5.5 4.2-5.5h3.5zm-15.2 15.4zm15.4 0zm80.5-3.3-.9 3.3-2.1-2.8-3.1-4.2-3 4.2-2 2.8-1-3.3-3.7-12.1h2.9l2.9 9.3 2.3-3.2.4-.6 1.2-1.7 1.3 1.7.5.6 2.4 3.2 2.6-9.3h2.9l-3.6 12.1zm33.4-7.9v1.4h9.9v2.7h-9.9v2.9c0 .8.6 1.4 1.4 1.4h11.2v2.7h-11c-2.3 0-4.2-1.9-4.2-4.2l-.1-7.1c0-2.3 1.8-4.1 4-4.2H414.7v2.7h-11.2c-.7.3-1.4.9-1.4 1.7zm56.3 6.3c0 2.7-2.1 4.9-4.8 4.9H443l-.2-15.4h9.7c2.3 0 4.2 1.9 4.2 4.2 0 .8-.2 1.6-.6 2.2 1.5.9 2.3 2.5 2.3 4.1zm-12.7-4.9h7c.8 0 1.4-.6 1.4-1.4 0-.8-.6-1.4-1.4-1.4h-7v2.8zm10 4.9c0-1.2-1-2.2-2.2-2.2h-7.8l.1 4.3h7.7c1.2.1 2.2-.9 2.2-2.1zm44.4-2.7c.8.8 1.3 2 1.3 3.2 0 2.5-1.9 4.5-4.4 4.5h-11v-2.7h10.9c1 0 1.8-.8 1.8-1.8s-.8-1.7-1.7-1.8H488.7v-2.8h8.2c1 0 1.7-.8 1.7-1.8s-.8-1.8-1.8-1.8h-10.9V169h10.8c2.5 0 4.6 2 4.6 4.5.1 1.2-.4 2.3-1.2 3.2zm32.2-.1c0 2.7 2.3 4.9 5 5h5v-2.9h-5V176h7.7l.1 8.4h-7.7c-4.3 0-7.7-3.4-7.8-7.7-.1-4.2 3.3-7.6 7.5-7.7h7.8v2.7h-7.7c-2.7 0-4.9 2.2-4.9 4.9zm55.7 7.7h-3.1l-1.4-2.8-3.4-6.6-3.3 6.6-1.4 2.8h-3.1l1.4-2.8 6.3-12.6 6.6 12.6 1.4 2.8zm42.5-15.4.2 15.4h-2.8l-.1-9.8-2.7 2.1-2.2 1.7-2.3-1.7-2.7-2.1.1 9.8h-2.8l-.2-15.4 2.8 2.1 5 3.8 4.9-3.8 2.8-2.1zm30.9 4.2v1.4h9.9v2.7h-9.9v2.9c0 .8.6 1.4 1.4 1.4H674v2.7h-11.2c-2.3 0-4.2-1.9-4.2-4.2l-.1-7.1c0-2.3 1.8-4.1 4-4.2H673.8v2.7h-11.2c-.6.3-1.2.9-1.2 1.7zm52.6.1c0-.9-.7-1.5-1.4-1.5h-6.2c-.8 0-1.4.6-1.4 1.4v.1c0 .8.6 1.4 1.4 1.4h5.5c1.4 0 2.7.6 3.6 1.6l.2.2c.7.9 1.1 1.9 1.1 3.1 0 2.6-2.1 4.8-4.7 4.9H707.2c-2.7 0-4.9-2.2-4.9-4.9h2.7c0 1.2 1 2.1 2.1 2.1h4.8c1.2 0 2.1-.9 2.1-2.1 0-1.2-1-2.1-2.2-2.1h-5.5c-1.1 0-2.1-.4-2.9-1.2-.2-.2-.4-.4-.5-.6-.5-.7-.8-1.5-.8-2.4v-.1c0-2.3 1.8-4.1 4-4.2h6.3c2.3 0 4.2 1.9 4.2 4.2v.1H714zm31.1 11.3v-2.7h2.7v2.7h-2.7zm33.3-7.9c0 2.7 2.3 4.9 5 5h7.7v2.7h-7.7c-4.3 0-7.7-3.4-7.8-7.7-.1-4.2 3.3-7.6 7.5-7.7h7.8v2.7h-7.7c-2.6.1-4.8 2.3-4.8 5zm54.7 0c.1 4.2-3.3 7.6-7.5 7.7h-.1c-4.3 0-7.7-3.4-7.8-7.7-.1-4.2 3.3-7.6 7.5-7.7h.1c4.3 0 7.7 3.5 7.8 7.7zm-2.8 0c0-2.7-2.3-4.9-5-5-2.7 0-4.9 2.2-4.9 4.9v.1c0 2.7 2.3 4.9 5 5 2.8 0 4.9-2.2 4.9-5 0 .1 0 .1 0 0zm45.7-7.7.2 15.4h-2.8l-.1-9.8-2.7 2.1-2.2 1.7-2.3-1.7-2.7-2.1.1 9.8h-2.8l-.2-15.4 2.8 2.1 5 3.8 4.9-3.8 2.8-2.1z"/>
    <linearGradient id="SVGID_00000008860946905441084190000010530354886101856649_" gradientUnits="userSpaceOnUse" x1="987.518" y1="-1108.408" x2="199.569" y2="-1123.275" gradientTransform="matrix(1 0 0 -1 0 -999.038)">
      <stop offset=".068" style="stop-color:#a8ffff"/>
      <stop offset=".508" style="stop-color:#4c00ff"/>
      <stop offset=".567" style="stop-color:#5600fe"/>
      <stop offset=".667" style="stop-color:#7200fc"/>
      <stop offset=".798" style="stop-color:#a000f8"/>
      <stop offset=".952" style="stop-color:#de00f3"/>
      <stop offset="1" style="stop-color:#f300f1"/>
    </linearGradient>
    <path style="fill:url(#SVGID_00000008860946905441084190000010530354886101856649_)" d="m555.2 153.5-15.9-6.7v-.1l-37-15.5.8-49.2h29.4l-.4 30.2 8 3.6.9-33.7h29.4l-1.1 42.3h7.9l.6-42.2 29.4-.1-.9 71.5-51.1-.1zm236.6 0v-.2h-34.3l-18.7-18.6h-9.5l-.2 18.6h-29.4l.5-42.3h-.1l.3-29.2h91.2l-.3 33.5-15.3 15 15.9 15.9.4-37.1.2-27.3H822l-.1 16.7L838.7 82h28.7l.2-.2h24.9l-30.6 30.1H850l-2.6 2.6 9.8 9.7h26.2l-.3 29.1H854l-8.6.2-21.2-21h-2.6l-.2 21.1-29.6-.1zm-184.8-.2.7-71.7h91.4l-.7 71.7H607zm62.3-29.3.1-13.2h-32.5l-.1 13.2h32.5zm-229 29.3.4-42.4h-31l.3-29.3h91.6l-.3 29.3h-31.1l-.4 42.4h-29.5zm-123.8 0 .7-71.7h91.4l-.3 29.3h-18.9l-.1 13.2h18.9l-.3 29.3-91.4-.1zm-30.6 0 .3-29.9-28.6-12.4h-3.7l-.4 42.4h-29.4l.4-42.4.3-29.2H264l22.5 9.8 29.3 12.8-.5 49-29.4-.1z"/>
    <path class="st0" d="m292.1 147.2.5-46.3 17.1 7.5-.4 38.9h-17.2v-.1zm-61.8 0 .4-38.3h17.2l-.4 38.3h-17.2zm28.6-42.4h-28.2l.2-17h31.8L288.5 99l-.2 18.5-29.4-12.7zm63.7 42.4.4-38.4h17.3l-.2 21.4H402l-.2 17.1h-79.2v-.1zm21.5-21.9.2-16.4h39l-.2 16.4h-39zm-21-20.6.2-17.1h79.2l-.2 17.1h-79.2zm123.4 42.5.4-38.4h17.3l-.4 38.4h-17.3zm-30.6-42.4.2-17.1h79.4l-.2 17.1h-79.4zm197.3 42.4.2-17.1h61.9l.2-21.4h17.2l-.4 38.4h-79.1v.1zm.2-21.1.4-38.4H693l-.2 17.1h-61.9l-.2 21.4-17.3-.1zM760 147.2l-18.7-18.6h-18l-.2 18.6h-17.2l.4-35.5h42.5l35.5 35.5H760zm-5.5-35.5h7.4l7.1-7-62.7.1.2-17h78.9l-.2 24.8-15 14.7-15.7-15.6zm93.4-6.5.3-.2 17.4-17h-24.4l-21.6 21.2h-3.9l.1-21.4h-17.3l-.1 21.2-.4 38.4h17.2l.2-21.2 35.4.1-12.1-12.1 9.2-9zm-.2 42 6.2-.1H877l.2-16.9h-46.6l17.1 17zm29.8-59.4-18.1 17.8H852l18.1-17.8h7.4zm-351.7 28.3.4-28H509l-.6 39.1 33.1 13.9.5-17.7-16.2-7.3zm58-27.9-.6 42.2H563l1.1-42.3h-17.2l-1.4 54.7 11 4.6h43.8l.8-59.3-17.3.1z"/>
    <linearGradient id="SVGID_00000079461516857635610280000010090319878468345479_" gradientUnits="userSpaceOnUse" x1="123.742" y1="-1039.077" x2="1077.705" y2="-1034.121" gradientTransform="matrix(1 0 0 -1 0 -999.038)">
      <stop offset=".001" style="stop-color:#b3ffff"/>
      <stop offset=".508" style="stop-color:#4c00ff"/>
      <stop offset=".567" style="stop-color:#5600fe"/>
      <stop offset=".667" style="stop-color:#7200fc"/>
      <stop offset=".798" style="stop-color:#a000f8"/>
      <stop offset=".952" style="stop-color:#de00f3"/>
      <stop offset="1" style="stop-color:#f300f1"/>
    </linearGradient>
    <path style="fill:url(#SVGID_00000079461516857635610280000010090319878468345479_)" d="m673.7 73.5.3-30.3-8.1-3.6-.5 33.9h-29.5l.7-42.5h-8.1l-.5 42.5H508.1l.4-27-28.3 27h-62.7l.3-16.4L401 73.5H276.9l-16-6.7v-.1l-37-15.5.2-49.2h29.4l-.1 30.1 8.1 3.6.6-33.7h29.4l-.7 42.3h7.9l.2-42.2 29.4-.1-.1 20.8L349.7 2h160.2l-.3 21.2h.1l-.1 3.3 56.7-24.4h33.3v-.2h51l52.9 22.2.3-22.2h182.4l-.3 21.6-21.3 21.8h21l-.4 28.3-211.5-.1zM328 64.8l17.9-17.4.2-16.3h-18l-.1 33.7zm466.5-20.6-.1 4.4 18-17.6H775.8l-.2 13.1 18.9.1zm-224.2 0 .2-12.4-28.8 12.4h28.6zm-122.8-7.1 6.1-6h-6l-.1 6z"/>
    <path class="st0" d="m247.2 36.1.1-28h-17.2l-.2 39L263 61l.4-17.7-16.2-7.2zm57.7-27.9-.2 42.3h-20.2l.7-42.3H268l-.9 54.6 11 4.6h43.8l.2-59.3-17.2.1zM352 46.1h44.1l-4.4 4.3h-40.2l-17.4 17h64.5l13.5-13.1.2-15.6h-7.4l7.5-7.3V29h-60.1l-.3 17.1zm.1-38-17.4 16.8 77.7.1.3-16.9h-60.6zm345.6 20.1-33.5-14-.3 17.9 16.2 7.2-.3 28.1H697l.7-39.2zM649.2 7.9h-43.7l-.9 59.5h17.2l.5-42.4h20.4l-.7 42.5h17.2l.9-54.9-10.9-4.7zm59.6 59.5.6-38.4h17.3l-.3 21.4h61.9l-.3 17h-79.2zm21.6-21.6.3-16.7h39l-.3 16.7h-39zm-20.9-20.9.3-17H789l-.3 17h-79.2zm120.3 21.4h17.9l17.4-17h-42.2l-22.8 22.3-.2 15.8H879l.3-17h-53.6l4.1-4.1zm-29-38.4-.3 17h77.4l1.7-1.7.2-15.4-79 .1zm51 38.4 4.6.1 17.4-17-4.6-.1-17.4 17zM447 46.2h28.3l-21.8 21.2h24.3l25-24 .4-14.2h-39l-17.2 17zM424.7 8.1l-.3 17h78.9l.3-17h-78.9zm16.8 20.5h-17.1l-.7 38.7h24l17.4-17h-24l.4-21.7zm73.1 21.8-.3 17H572l.3-17h-57.7zm79.6-42.3h-26.7l-52.7 22.7-.1 16.2h17.2v-5.1l38.9-16.8h5.8l-.5 42.3h17.2l.7-42.3.1-9.5v-.2l.1-7.3zM246.1 179.4c0 2.7-2.1 4.9-4.8 4.9h-10.6l-.2-15.4h9.7c2.3 0 4.2 1.9 4.2 4.2 0 .8-.2 1.6-.6 2.2 1.5.9 2.3 2.5 2.3 4.1zm-12.7-4.9h7c.8 0 1.4-.6 1.4-1.4 0-.8-.6-1.4-1.4-1.4h-7v2.8zm10 4.9c0-1.2-1-2.2-2.2-2.2h-7.7l.1 4.3h7.7c1.1.1 2.1-.9 2.1-2.1zm44.6-10.5-5.9 7.7-.3.4.1 7.3h-2.8l-.1-7.2-.4-.5-6.1-7.7h3.5l4.3 5.5 4.2-5.5h3.5zm-15.2 15.4zm15.4 0zm80.5-3.3-.9 3.3-2.1-2.8-3.1-4.2-3 4.2-2 2.8-1-3.3-3.7-12.1h2.9l2.9 9.3 2.3-3.2.4-.6 1.2-1.7 1.3 1.7.5.6 2.4 3.2 2.6-9.3h2.9l-3.6 12.1zm33.4-7.9v1.4h9.9v2.7h-9.9v2.9c0 .8.6 1.4 1.4 1.4h11.2v2.7h-11c-2.3 0-4.2-1.9-4.2-4.2l-.1-7.1c0-2.3 1.8-4.1 4-4.2H414.7v2.7h-11.2c-.7.3-1.4.9-1.4 1.7zm56.3 6.3c0 2.7-2.1 4.9-4.8 4.9H443l-.2-15.4h9.7c2.3 0 4.2 1.9 4.2 4.2 0 .8-.2 1.6-.6 2.2 1.5.9 2.3 2.5 2.3 4.1zm-12.7-4.9h7c.8 0 1.4-.6 1.4-1.4 0-.8-.6-1.4-1.4-1.4h-7v2.8zm10 4.9c0-1.2-1-2.2-2.2-2.2h-7.8l.1 4.3h7.7c1.2.1 2.2-.9 2.2-2.1zm44.4-2.7c.8.8 1.3 2 1.3 3.2 0 2.5-1.9 4.5-4.4 4.5h-11v-2.7h10.9c1 0 1.8-.8 1.8-1.8s-.8-1.7-1.7-1.8H488.7v-2.8h8.2c1 0 1.7-.8 1.7-1.8s-.8-1.8-1.8-1.8h-10.9V169h10.8c2.5 0 4.6 2 4.6 4.5.1 1.2-.4 2.3-1.2 3.2zm32.2-.1c0 2.7 2.3 4.9 5 5h5v-2.9h-5V176h7.7l.1 8.4h-7.7c-4.3 0-7.7-3.4-7.8-7.7-.1-4.2 3.3-7.6 7.5-7.7h7.8v2.7h-7.7c-2.7 0-4.9 2.2-4.9 4.9zm55.7 7.7h-3.1l-1.4-2.8-3.4-6.6-3.3 6.6-1.4 2.8h-3.1l1.4-2.8 6.3-12.6 6.6 12.6 1.4 2.8zm42.5-15.4.2 15.4h-2.8l-.1-9.8-2.7 2.1-2.2 1.7-2.3-1.7-2.7-2.1.1 9.8h-2.8l-.2-15.4 2.8 2.1 5 3.8 4.9-3.8 2.8-2.1zm30.9 4.2v1.4h9.9v2.7h-9.9v2.9c0 .8.6 1.4 1.4 1.4H674v2.7h-11.2c-2.3 0-4.2-1.9-4.2-4.2l-.1-7.1c0-2.3 1.8-4.1 4-4.2H673.8v2.7h-11.2c-.6.3-1.2.9-1.2 1.7zm52.6.1c0-.9-.7-1.5-1.4-1.5h-6.2c-.8 0-1.4.6-1.4 1.4v.1c0 .8.6 1.4 1.4 1.4h5.5c1.4 0 2.7.6 3.6 1.6l.2.2c.7.9 1.1 1.9 1.1 3.1 0 2.6-2.1 4.8-4.7 4.9H707.2c-2.7 0-4.9-2.2-4.9-4.9h2.7c0 1.2 1 2.1 2.1 2.1h4.8c1.2 0 2.1-.9 2.1-2.1 0-1.2-1-2.1-2.2-2.1h-5.5c-1.1 0-2.1-.4-2.9-1.2-.2-.2-.4-.4-.5-.6-.5-.7-.8-1.5-.8-2.4v-.1c0-2.3 1.8-4.1 4-4.2h6.3c2.3 0 4.2 1.9 4.2 4.2v.1H714zm31.1 11.3v-2.7h2.7v2.7h-2.7zm33.3-7.9c0 2.7 2.3 4.9 5 5h7.7v2.7h-7.7c-4.3 0-7.7-3.4-7.8-7.7-.1-4.2 3.3-7.6 7.5-7.7h7.8v2.7h-7.7c-2.6.1-4.8 2.3-4.8 5zm54.7 0c.1 4.2-3.3 7.6-7.5 7.7h-.1c-4.3 0-7.7-3.4-7.8-7.7-.1-4.2 3.3-7.6 7.5-7.7h.1c4.3 0 7.7 3.5 7.8 7.7zm-2.8 0c0-2.7-2.3-4.9-5-5-2.7 0-4.9 2.2-4.9 4.9v.1c0 2.7 2.3 4.9 5 5 2.8 0 4.9-2.2 4.9-5 0 .1 0 .1 0 0zm45.7-7.7.2 15.4h-2.8l-.1-9.8-2.7 2.1-2.2 1.7-2.3-1.7-2.7-2.1.1 9.8h-2.8l-.2-15.4 2.8 2.1 5 3.8 4.9-3.8 2.8-2.1z"/>
    <linearGradient id="SVGID_00000078760256178684759860000011837125136860394899_" gradientUnits="userSpaceOnUse" x1="987.518" y1="-1108.408" x2="199.569" y2="-1123.275" gradientTransform="matrix(1 0 0 -1 0 -999.038)">
      <stop offset=".068" style="stop-color:#a8ffff"/>
      <stop offset=".508" style="stop-color:#4c00ff"/>
      <stop offset=".567" style="stop-color:#5600fe"/>
      <stop offset=".667" style="stop-color:#7200fc"/>
      <stop offset=".798" style="stop-color:#a000f8"/>
      <stop offset=".952" style="stop-color:#de00f3"/>
      <stop offset="1" style="stop-color:#f300f1"/>
    </linearGradient>
    <path style="fill:url(#SVGID_00000078760256178684759860000011837125136860394899_)" d="m555.2 153.5-15.9-6.7v-.1l-37-15.5.8-49.2h29.4l-.4 30.2 8 3.6.9-33.7h29.4l-1.1 42.3h7.9l.6-42.2 29.4-.1-.9 71.5-51.1-.1zm236.6 0v-.2h-34.3l-18.7-18.6h-9.5l-.2 18.6h-29.4l.5-42.3h-.1l.3-29.2h91.2l-.3 33.5-15.3 15 15.9 15.9.4-37.1.2-27.3H822l-.1 16.7L838.7 82h28.7l.2-.2h24.9l-30.6 30.1H850l-2.6 2.6 9.8 9.7h26.2l-.3 29.1H854l-8.6.2-21.2-21h-2.6l-.2 21.1-29.6-.1zm-184.8-.2.7-71.7h91.4l-.7 71.7H607zm62.3-29.3.1-13.2h-32.5l-.1 13.2h32.5zm-229 29.3.4-42.4h-31l.3-29.3h91.6l-.3 29.3h-31.1l-.4 42.4h-29.5zm-123.8 0 .7-71.7h91.4l-.3 29.3h-18.9l-.1 13.2h18.9l-.3 29.3-91.4-.1zm-30.6 0 .3-29.9-28.6-12.4h-3.7l-.4 42.4h-29.4l.4-42.4.3-29.2H264l22.5 9.8 29.3 12.8-.5 49-29.4-.1z"/>
    <path class="st0" d="m292.1 147.2.5-46.3 17.1 7.5-.4 38.9h-17.2v-.1zm-61.8 0 .4-38.3h17.2l-.4 38.3h-17.2zm28.6-42.4h-28.2l.2-17h31.8L288.5 99l-.2 18.5-29.4-12.7zm63.7 42.4.4-38.4h17.3l-.2 21.4H402l-.2 17.1h-79.2v-.1zm21.5-21.9.2-16.4h39l-.2 16.4h-39zm-21-20.6.2-17.1h79.2l-.2 17.1h-79.2zm123.4 42.5.4-38.4h17.3l-.4 38.4h-17.3zm-30.6-42.4.2-17.1h79.4l-.2 17.1h-79.4zm197.3 42.4.2-17.1h61.9l.2-21.4h17.2l-.4 38.4h-79.1v.1zm.2-21.1.4-38.4H693l-.2 17.1h-61.9l-.2 21.4-17.3-.1zM760 147.2l-18.7-18.6h-18l-.2 18.6h-17.2l.4-35.5h42.5l35.5 35.5H760zm-5.5-35.5h7.4l7.1-7-62.7.1.2-17h78.9l-.2 24.8-15 14.7-15.7-15.6zm93.4-6.5.3-.2 17.4-17h-24.4l-21.6 21.2h-3.9l.1-21.4h-17.3l-.1 21.2-.4 38.4h17.2l.2-21.2 35.4.1-12.1-12.1 9.2-9zm-.2 42 6.2-.1H877l.2-16.9h-46.6l17.1 17zm29.8-59.4-18.1 17.8H852l18.1-17.8h7.4zm-351.7 28.3.4-28H509l-.6 39.1 33.1 13.9.5-17.7-16.2-7.3zm58-27.9-.6 42.2H563l1.1-42.3h-17.2l-1.4 54.7 11 4.6h43.8l.8-59.3-17.3.1z"/>
    <linearGradient id="SVGID_00000101791582619707034150000014470414344683207614_" gradientUnits="userSpaceOnUse" x1="123.742" y1="-1039.077" x2="1077.705" y2="-1034.121" gradientTransform="matrix(1 0 0 -1 0 -999.038)">
      <stop offset=".001" style="stop-color:#b3ffff"/>
      <stop offset=".508" style="stop-color:#4c00ff"/>
      <stop offset=".567" style="stop-color:#5600fe"/>
      <stop offset=".667" style="stop-color:#7200fc"/>
      <stop offset=".798" style="stop-color:#a000f8"/>
      <stop offset=".952" style="stop-color:#de00f3"/>
      <stop offset="1" style="stop-color:#f300f1"/>
    </linearGradient>
    <path style="fill:url(#SVGID_00000101791582619707034150000014470414344683207614_)" d="m673.7 73.5.3-30.3-8.1-3.6-.5 33.9h-29.5l.7-42.5h-8.1l-.5 42.5H508.1l.4-27-28.3 27h-62.7l.3-16.4L401 73.5H276.9l-16-6.7v-.1l-37-15.5.2-49.2h29.4l-.1 30.1 8.1 3.6.6-33.7h29.4l-.7 42.3h7.9l.2-42.2 29.4-.1-.1 20.8L349.7 2h160.2l-.3 21.2h.1l-.1 3.3 56.7-24.4h33.3v-.2h51l52.9 22.2.3-22.2h182.4l-.3 21.6-21.3 21.8h21l-.4 28.3-211.5-.1zM328 64.8l17.9-17.4.2-16.3h-18l-.1 33.7zm466.5-20.6-.1 4.4 18-17.6H775.8l-.2 13.1 18.9.1zm-224.2 0 .2-12.4-28.8 12.4h28.6zm-122.8-7.1 6.1-6h-6l-.1 6z"/>
    <path class="st0" d="m247.2 36.1.1-28h-17.2l-.2 39L263 61l.4-17.7-16.2-7.2zm57.7-27.9-.2 42.3h-20.2l.7-42.3H268l-.9 54.6 11 4.6h43.8l.2-59.3-17.2.1zM352 46.1h44.1l-4.4 4.3h-40.2l-17.4 17h64.5l13.5-13.1.2-15.6h-7.4l7.5-7.3V29h-60.1l-.3 17.1zm.1-38-17.4 16.8 77.7.1.3-16.9h-60.6zm345.6 20.1-33.5-14-.3 17.9 16.2 7.2-.3 28.1H697l.7-39.2zM649.2 7.9h-43.7l-.9 59.5h17.2l.5-42.4h20.4l-.7 42.5h17.2l.9-54.9-10.9-4.7zm59.6 59.5.6-38.4h17.3l-.3 21.4h61.9l-.3 17h-79.2zm21.6-21.6.3-16.7h39l-.3 16.7h-39zm-20.9-20.9.3-17H789l-.3 17h-79.2zm120.3 21.4h17.9l17.4-17h-42.2l-22.8 22.3-.2 15.8H879l.3-17h-53.6l4.1-4.1zm-29-38.4-.3 17h77.4l1.7-1.7.2-15.4-79 .1zm51 38.4 4.6.1 17.4-17-4.6-.1-17.4 17zM447 46.2h28.3l-21.8 21.2h24.3l25-24 .4-14.2h-39l-17.2 17zM424.7 8.1l-.3 17h78.9l.3-17h-78.9zm16.8 20.5h-17.1l-.7 38.7h24l17.4-17h-24l.4-21.7zm73.1 21.8-.3 17H572l.3-17h-57.7zm79.6-42.3h-26.7l-52.7 22.7-.1 16.2h17.2v-5.1l38.9-16.8h5.8l-.5 42.3h17.2l.7-42.3.1-9.5v-.2l.1-7.3z"/>
    <linearGradient id="SVGID_00000145047326971741884420000002776619169441288340_" gradientUnits="userSpaceOnUse" x1="48.135" y1="-304.833" x2="160.283" y2="-447.069" gradientTransform="matrix(1 0 0 -1 0 -302.8)">
      <stop offset=".001" style="stop-color:#b3ffff"/>
      <stop offset=".059" style="stop-color:#aae9ff"/>
      <stop offset=".179" style="stop-color:#94b1ff"/>
      <stop offset=".349" style="stop-color:#7059ff"/>
      <stop offset=".508" style="stop-color:#4c00ff"/>
      <stop offset=".567" style="stop-color:#5600fe"/>
      <stop offset=".667" style="stop-color:#7200fc"/>
      <stop offset=".798" style="stop-color:#a000f8"/>
      <stop offset=".952" style="stop-color:#de00f3"/>
      <stop offset="1" style="stop-color:#f300f1"/>
    </linearGradient>
    <path style="fill:url(#SVGID_00000145047326971741884420000002776619169441288340_)" d="M59.1 126.7H27l-27-46 26.8-47.3L45.8 0h103.7l-22.3 36.5h78.2l-24.6 43h-27.3l15 25.9-30.1 52.7H41.1l18-31.4zm56.7-7.6 22.8-39.6H96.1l21.3-37.3h-46L49.2 80.6 71.4 119h44.4v.1z"/>
    <path class="st0" d="m146.1 80.6-26.2 45.5H67.5l-14.2 25h81.1l26.1-45.7zM188.5 43.5h4.9l-16.6 29H172zM184.5 43.5h-59.8l-16.5 29H168zM49.9 7l-16 28.2h86L137 7zM64.3 40.4H30.9L8.1 80.6 31 119.7h32.7L41.1 80.6z"/>
  </g>
</svg>
